<svg width="1920" height="1245" viewBox="0 0 1920 1245" fill="none" xmlns="http://www.w3.org/2000/svg">
<rect width="1920" height="1245" fill="white"/>
<mask id="mask0_335_549" style="mask-type:alpha" maskUnits="userSpaceOnUse" x="0" y="0" width="1226" height="1245">
<rect width="1226" height="1245" fill="white"/>
</mask>
<g mask="url(#mask0_335_549)">
<path d="M1202.78 1183.29C1178.93 1154.44 1130.96 1147.68 1097.66 1140.72C1043.76 1129.46 974.804 1108.41 971.919 1038.62C971.023 1016.96 973.794 995.74 973.419 974.057C972.909 944.336 963.503 916.121 953.42 888.445C932.671 831.51 886.403 819.041 845.884 783.613C805.761 748.537 797.147 707.512 804.782 653.139C815.26 578.424 836.238 508.667 828.916 431.786C822.885 368.473 790.355 322.841 738.733 293.703C697.037 270.172 641.957 251.942 614.135 208.157C591.949 173.235 607.344 132.287 600.375 93.6486C590.668 39.7701 553.238 25.5428 514.5 0H0V1245H1211.83C1216.65 1245 1221 1245 1226 1245C1221.27 1224.65 1216.46 1199.82 1202.79 1183.29H1202.78Z" fill="#E7ECF8"/>
<path d="M448.23 362.815C548.5 328.397 658.44 328.743 758.53 363.792C810.64 382.042 860.68 409.947 900.39 451.205C940.1 492.463 968.91 547.874 974.52 607.55C980.13 667.226 960.62 730.631 918.89 769.421C872.32 812.707 806.79 820.576 745.75 819.893C684.71 819.221 622.05 812.15 563.87 832.438C509 851.57 462.18 893.847 406.28 908.955C326.88 930.409 236.73 887.365 196.96 808.998C152.81 722.016 171.52 616.512 219.58 536.537C272.07 449.198 358.77 393.525 448.23 362.815Z" fill="#E6EBF9"/>
<path d="M309.128 136.596C473.611 78.5819 653.956 79.1663 818.143 138.243C903.624 169.003 985.709 216.037 1050.85 285.579C1115.99 355.121 1163.25 448.517 1172.45 549.103C1181.65 649.689 1149.65 756.561 1081.2 821.941C1004.8 894.901 897.308 908.165 797.179 907.014C697.049 905.881 594.262 893.963 498.823 928.158C408.815 960.406 332.012 1031.67 240.313 1057.13C110.066 1093.29 -37.8156 1020.74 -103.054 888.65C-175.478 742.04 -144.786 564.208 -65.9484 429.41C20.156 282.197 162.378 188.358 309.128 136.596Z" fill="#F1F5FF" fill-opacity="0.7"/>
</g>
<path d="M1622 19.9963C1626.05 19.9963 1629.36 23.1911 1629.5 27.2454L1629.5 27.4963V31.5933L1630.88 34.7493C1630.95 34.9072 1630.98 35.0777 1630.98 35.2501C1630.98 35.9405 1630.43 36.5001 1629.73 36.5001L1625 36.5016C1625 38.1585 1623.66 39.5016 1622 39.5016C1620.4 39.5016 1619.1 38.2527 1619.01 36.6779L1619 36.4993L1614.27 36.5001C1614.1 36.5001 1613.93 36.4649 1613.78 36.3966C1613.14 36.1216 1612.85 35.3853 1613.13 34.7521L1614.5 31.5943V27.4962C1614.5 23.3414 1617.85 19.9963 1622 19.9963ZM1623.5 36.4993L1620.5 36.5016C1620.5 37.33 1621.17 38.0016 1622 38.0016C1622.78 38.0016 1623.42 37.4067 1623.49 36.6461L1623.5 36.4993ZM1622 21.4963C1618.68 21.4963 1616 24.1706 1616 27.4963V31.906L1614.66 35.0001H1629.35L1628 31.9069L1628 27.5092L1628 27.284C1627.89 24.0505 1625.24 21.4963 1622 21.4963Z" fill="white"/>
<path d="M1670 19.999C1675.52 19.999 1680 24.4769 1680 30.0006C1680 35.5243 1675.52 40.0021 1670 40.0021C1664.48 40.0021 1660 35.5243 1660 30.0006C1660 24.4769 1664.48 19.999 1670 19.999ZM1670 21.499C1665.3 21.499 1661.5 25.3053 1661.5 30.0006C1661.5 34.6959 1665.3 38.5021 1670 38.5021C1674.7 38.5021 1678.5 34.6959 1678.5 30.0006C1678.5 25.3053 1674.7 21.499 1670 21.499ZM1670 28.4996C1670.38 28.4994 1670.69 28.7813 1670.74 29.1473L1670.75 29.2491L1670.75 34.7507C1670.75 35.1649 1670.42 35.5009 1670 35.5012C1669.62 35.5014 1669.31 35.2195 1669.26 34.8535L1669.25 34.7517L1669.25 29.2501C1669.25 28.8359 1669.58 28.4999 1670 28.4996ZM1670 25.0018C1670.55 25.0018 1671 25.449 1671 26.0005C1671 26.5521 1670.55 26.9992 1670 26.9992C1669.45 26.9992 1669 26.5521 1669 26.0005C1669 25.449 1669.45 25.0018 1670 25.0018Z" fill="white"/>
<path d="M1709.36 23V36.5H1707.23V23H1709.36ZM1711.27 31.8506V31.6484C1711.27 30.9629 1711.37 30.3271 1711.57 29.7412C1711.77 29.1494 1712.06 28.6367 1712.43 28.2031C1712.81 27.7637 1713.28 27.4238 1713.82 27.1836C1714.37 26.9375 1714.99 26.8145 1715.69 26.8145C1716.38 26.8145 1717 26.9375 1717.55 27.1836C1718.1 27.4238 1718.57 27.7637 1718.95 28.2031C1719.33 28.6367 1719.62 29.1494 1719.82 29.7412C1720.02 30.3271 1720.12 30.9629 1720.12 31.6484V31.8506C1720.12 32.5361 1720.02 33.1719 1719.82 33.7578C1719.62 34.3438 1719.33 34.8564 1718.95 35.2959C1718.57 35.7295 1718.1 36.0693 1717.56 36.3154C1717.01 36.5557 1716.39 36.6758 1715.7 36.6758C1715.01 36.6758 1714.38 36.5557 1713.83 36.3154C1713.29 36.0693 1712.82 35.7295 1712.44 35.2959C1712.06 34.8564 1711.77 34.3438 1711.57 33.7578C1711.37 33.1719 1711.27 32.5361 1711.27 31.8506ZM1713.39 31.6484V31.8506C1713.39 32.2783 1713.44 32.6826 1713.52 33.0635C1713.61 33.4443 1713.75 33.7783 1713.94 34.0654C1714.12 34.3525 1714.36 34.5781 1714.66 34.7422C1714.95 34.9062 1715.3 34.9883 1715.7 34.9883C1716.1 34.9883 1716.44 34.9062 1716.72 34.7422C1717.02 34.5781 1717.26 34.3525 1717.44 34.0654C1717.63 33.7783 1717.77 33.4443 1717.86 33.0635C1717.95 32.6826 1718 32.2783 1718 31.8506V31.6484C1718 31.2266 1717.95 30.8281 1717.86 30.4531C1717.77 30.0723 1717.63 29.7354 1717.43 29.4424C1717.25 29.1494 1717.01 28.9209 1716.71 28.7568C1716.43 28.5869 1716.08 28.502 1715.69 28.502C1715.29 28.502 1714.94 28.5869 1714.65 28.7568C1714.36 28.9209 1714.12 29.1494 1713.94 29.4424C1713.75 29.7354 1713.61 30.0723 1713.52 30.4531C1713.44 30.8281 1713.39 31.2266 1713.39 31.6484ZM1727.98 26.9902H1729.91V36.2363C1729.91 37.0918 1729.72 37.8184 1729.36 38.416C1729 39.0137 1728.49 39.4678 1727.84 39.7783C1727.19 40.0947 1726.44 40.2529 1725.58 40.2529C1725.22 40.2529 1724.81 40.2002 1724.37 40.0947C1723.93 39.9893 1723.5 39.8193 1723.09 39.585C1722.68 39.3564 1722.33 39.0547 1722.06 38.6797L1723.05 37.4316C1723.39 37.8359 1723.77 38.1318 1724.18 38.3193C1724.59 38.5068 1725.02 38.6006 1725.47 38.6006C1725.95 38.6006 1726.37 38.5098 1726.71 38.3281C1727.05 38.1523 1727.32 37.8916 1727.51 37.5459C1727.69 37.2002 1727.79 36.7783 1727.79 36.2803V29.1436L1727.98 26.9902ZM1721.52 31.8506V31.666C1721.52 30.9453 1721.61 30.2891 1721.79 29.6973C1721.96 29.0996 1722.21 28.5869 1722.54 28.1592C1722.87 27.7256 1723.27 27.3945 1723.74 27.166C1724.21 26.9316 1724.74 26.8145 1725.33 26.8145C1725.94 26.8145 1726.47 26.9258 1726.9 27.1484C1727.34 27.3711 1727.71 27.6904 1728 28.1064C1728.29 28.5166 1728.52 29.0088 1728.68 29.583C1728.85 30.1514 1728.98 30.7842 1729.06 31.4814V32.0703C1728.99 32.75 1728.86 33.3711 1728.68 33.9336C1728.49 34.4961 1728.25 34.9824 1727.96 35.3926C1727.66 35.8027 1727.29 36.1191 1726.85 36.3418C1726.41 36.5645 1725.9 36.6758 1725.31 36.6758C1724.73 36.6758 1724.21 36.5557 1723.74 36.3154C1723.27 36.0752 1722.88 35.7383 1722.54 35.3047C1722.21 34.8711 1721.96 34.3613 1721.79 33.7754C1721.61 33.1836 1721.52 32.542 1721.52 31.8506ZM1723.64 31.666V31.8506C1723.64 32.2842 1723.68 32.6885 1723.76 33.0635C1723.85 33.4385 1723.98 33.7695 1724.16 34.0566C1724.34 34.3379 1724.57 34.5605 1724.84 34.7246C1725.12 34.8828 1725.46 34.9619 1725.84 34.9619C1726.33 34.9619 1726.74 34.8564 1727.06 34.6455C1727.38 34.4346 1727.63 34.1504 1727.8 33.793C1727.97 33.4297 1728.1 33.0254 1728.17 32.5801V30.9893C1728.13 30.6436 1728.06 30.3213 1727.95 30.0225C1727.84 29.7236 1727.7 29.4629 1727.52 29.2402C1727.33 29.0117 1727.11 28.8359 1726.83 28.7129C1726.55 28.584 1726.23 28.5195 1725.85 28.5195C1725.47 28.5195 1725.14 28.6016 1724.86 28.7656C1724.58 28.9297 1724.35 29.1553 1724.17 29.4424C1723.99 29.7295 1723.86 30.0635 1723.77 30.4443C1723.68 30.8252 1723.64 31.2324 1723.64 31.666ZM1734.37 26.9902V36.5H1732.24V26.9902H1734.37ZM1732.1 24.4941C1732.1 24.1719 1732.21 23.9053 1732.42 23.6943C1732.64 23.4775 1732.94 23.3691 1733.32 23.3691C1733.69 23.3691 1733.99 23.4775 1734.2 23.6943C1734.42 23.9053 1734.53 24.1719 1734.53 24.4941C1734.53 24.8105 1734.42 25.0742 1734.2 25.2852C1733.99 25.4961 1733.69 25.6016 1733.32 25.6016C1732.94 25.6016 1732.64 25.4961 1732.42 25.2852C1732.21 25.0742 1732.1 24.8105 1732.1 24.4941ZM1738.79 29.0205V36.5H1736.67V26.9902H1738.67L1738.79 29.0205ZM1738.41 31.3936L1737.73 31.3848C1737.73 30.7109 1737.83 30.0928 1738.01 29.5303C1738.2 28.9678 1738.46 28.4844 1738.78 28.0801C1739.12 27.6758 1739.52 27.3652 1739.98 27.1484C1740.44 26.9258 1740.96 26.8145 1741.53 26.8145C1741.98 26.8145 1742.4 26.8789 1742.76 27.0078C1743.14 27.1309 1743.46 27.333 1743.72 27.6143C1743.99 27.8955 1744.2 28.2617 1744.34 28.7129C1744.48 29.1582 1744.55 29.7061 1744.55 30.3564V36.5H1742.42V30.3477C1742.42 29.8906 1742.35 29.5303 1742.22 29.2666C1742.09 28.9971 1741.9 28.8066 1741.65 28.6953C1741.4 28.5781 1741.09 28.5195 1740.73 28.5195C1740.36 28.5195 1740.04 28.5957 1739.75 28.748C1739.46 28.9004 1739.22 29.1084 1739.02 29.3721C1738.83 29.6357 1738.68 29.9404 1738.57 30.2861C1738.47 30.6318 1738.41 31.001 1738.41 31.3936ZM1757.54 23.7031V38.873H1756.12V23.7031H1757.54ZM1776.07 33.2041C1776.07 32.9404 1776.03 32.7061 1775.94 32.501C1775.87 32.2959 1775.73 32.1084 1775.53 31.9385C1775.33 31.7686 1775.05 31.6045 1774.69 31.4463C1774.33 31.2822 1773.87 31.1152 1773.32 30.9453C1772.71 30.7578 1772.14 30.5498 1771.63 30.3213C1771.12 30.0869 1770.67 29.8174 1770.29 29.5127C1769.91 29.2021 1769.62 28.8477 1769.4 28.4492C1769.19 28.0449 1769.09 27.5791 1769.09 27.0518C1769.09 26.5303 1769.2 26.0557 1769.41 25.6279C1769.64 25.2002 1769.95 24.8311 1770.35 24.5205C1770.76 24.2041 1771.25 23.9609 1771.8 23.791C1772.36 23.6152 1772.98 23.5273 1773.65 23.5273C1774.6 23.5273 1775.42 23.7031 1776.1 24.0547C1776.79 24.4062 1777.32 24.8779 1777.69 25.4697C1778.07 26.0615 1778.25 26.7148 1778.25 27.4297H1776.07C1776.07 27.0078 1775.98 26.6357 1775.79 26.3135C1775.62 25.9854 1775.35 25.7275 1774.99 25.54C1774.63 25.3525 1774.17 25.2588 1773.62 25.2588C1773.1 25.2588 1772.67 25.3379 1772.32 25.4961C1771.98 25.6543 1771.72 25.8682 1771.55 26.1377C1771.38 26.4072 1771.29 26.7119 1771.29 27.0518C1771.29 27.292 1771.35 27.5117 1771.46 27.7109C1771.57 27.9043 1771.74 28.0859 1771.97 28.2559C1772.2 28.4199 1772.49 28.5752 1772.83 28.7217C1773.18 28.8682 1773.58 29.0088 1774.05 29.1436C1774.76 29.3545 1775.38 29.5889 1775.91 29.8467C1776.44 30.0986 1776.88 30.3857 1777.23 30.708C1777.58 31.0303 1777.84 31.3965 1778.02 31.8066C1778.19 32.2109 1778.28 32.6709 1778.28 33.1865C1778.28 33.7256 1778.17 34.2119 1777.96 34.6455C1777.74 35.0732 1777.43 35.4395 1777.02 35.7441C1776.63 36.043 1776.15 36.2744 1775.58 36.4385C1775.03 36.5967 1774.41 36.6758 1773.72 36.6758C1773.1 36.6758 1772.5 36.5938 1771.9 36.4297C1771.31 36.2656 1770.77 36.0166 1770.28 35.6826C1769.8 35.3428 1769.41 34.9209 1769.12 34.417C1768.84 33.9072 1768.69 33.3125 1768.69 32.6328H1770.9C1770.9 33.0488 1770.97 33.4033 1771.11 33.6963C1771.26 33.9893 1771.46 34.2295 1771.72 34.417C1771.97 34.5986 1772.27 34.7334 1772.61 34.8213C1772.96 34.9092 1773.33 34.9531 1773.72 34.9531C1774.24 34.9531 1774.67 34.8799 1775.01 34.7334C1775.36 34.5869 1775.63 34.3818 1775.8 34.1182C1775.98 33.8545 1776.07 33.5498 1776.07 33.2041ZM1782.29 26.9902V36.5H1780.16V26.9902H1782.29ZM1780.02 24.4941C1780.02 24.1719 1780.13 23.9053 1780.34 23.6943C1780.55 23.4775 1780.85 23.3691 1781.23 23.3691C1781.61 23.3691 1781.91 23.4775 1782.12 23.6943C1782.34 23.9053 1782.45 24.1719 1782.45 24.4941C1782.45 24.8105 1782.34 25.0742 1782.12 25.2852C1781.91 25.4961 1781.61 25.6016 1781.23 25.6016C1780.85 25.6016 1780.55 25.4961 1780.34 25.2852C1780.13 25.0742 1780.02 24.8105 1780.02 24.4941ZM1790.7 26.9902H1792.62V36.2363C1792.62 37.0918 1792.44 37.8184 1792.08 38.416C1791.72 39.0137 1791.21 39.4678 1790.56 39.7783C1789.91 40.0947 1789.16 40.2529 1788.3 40.2529C1787.94 40.2529 1787.53 40.2002 1787.09 40.0947C1786.65 39.9893 1786.22 39.8193 1785.8 39.585C1785.39 39.3564 1785.05 39.0547 1784.78 38.6797L1785.77 37.4316C1786.11 37.8359 1786.48 38.1318 1786.89 38.3193C1787.3 38.5068 1787.74 38.6006 1788.19 38.6006C1788.67 38.6006 1789.09 38.5098 1789.43 38.3281C1789.77 38.1523 1790.04 37.8916 1790.23 37.5459C1790.41 37.2002 1790.51 36.7783 1790.51 36.2803V29.1436L1790.7 26.9902ZM1784.24 31.8506V31.666C1784.24 30.9453 1784.33 30.2891 1784.5 29.6973C1784.68 29.0996 1784.93 28.5869 1785.26 28.1592C1785.59 27.7256 1785.99 27.3945 1786.46 27.166C1786.92 26.9316 1787.45 26.8145 1788.05 26.8145C1788.66 26.8145 1789.19 26.9258 1789.62 27.1484C1790.06 27.3711 1790.42 27.6904 1790.72 28.1064C1791.01 28.5166 1791.24 29.0088 1791.4 29.583C1791.57 30.1514 1791.7 30.7842 1791.78 31.4814V32.0703C1791.71 32.75 1791.58 33.3711 1791.39 33.9336C1791.21 34.4961 1790.97 34.9824 1790.67 35.3926C1790.38 35.8027 1790.01 36.1191 1789.57 36.3418C1789.13 36.5645 1788.62 36.6758 1788.03 36.6758C1787.45 36.6758 1786.92 36.5557 1786.46 36.3154C1785.99 36.0752 1785.59 35.7383 1785.26 35.3047C1784.93 34.8711 1784.68 34.3613 1784.5 33.7754C1784.33 33.1836 1784.24 32.542 1784.24 31.8506ZM1786.36 31.666V31.8506C1786.36 32.2842 1786.4 32.6885 1786.48 33.0635C1786.57 33.4385 1786.7 33.7695 1786.88 34.0566C1787.06 34.3379 1787.29 34.5605 1787.56 34.7246C1787.84 34.8828 1788.17 34.9619 1788.56 34.9619C1789.05 34.9619 1789.46 34.8564 1789.78 34.6455C1790.1 34.4346 1790.35 34.1504 1790.52 33.793C1790.69 33.4297 1790.81 33.0254 1790.88 32.5801V30.9893C1790.85 30.6436 1790.78 30.3213 1790.67 30.0225C1790.56 29.7236 1790.42 29.4629 1790.23 29.2402C1790.05 29.0117 1789.82 28.8359 1789.55 28.7129C1789.27 28.584 1788.95 28.5195 1788.57 28.5195C1788.19 28.5195 1787.86 28.6016 1787.58 28.7656C1787.3 28.9297 1787.07 29.1553 1786.89 29.4424C1786.71 29.7295 1786.58 30.0635 1786.49 30.4443C1786.4 30.8252 1786.36 31.2324 1786.36 31.666ZM1796.92 29.0205V36.5H1794.8V26.9902H1796.8L1796.92 29.0205ZM1796.54 31.3936L1795.86 31.3848C1795.87 30.7109 1795.96 30.0928 1796.14 29.5303C1796.33 28.9678 1796.59 28.4844 1796.91 28.0801C1797.25 27.6758 1797.65 27.3652 1798.11 27.1484C1798.57 26.9258 1799.09 26.8145 1799.66 26.8145C1800.11 26.8145 1800.53 26.8789 1800.9 27.0078C1801.27 27.1309 1801.59 27.333 1801.85 27.6143C1802.12 27.8955 1802.33 28.2617 1802.47 28.7129C1802.61 29.1582 1802.68 29.7061 1802.68 30.3564V36.5H1800.55V30.3477C1800.55 29.8906 1800.49 29.5303 1800.35 29.2666C1800.22 28.9971 1800.03 28.8066 1799.78 28.6953C1799.53 28.5781 1799.23 28.5195 1798.86 28.5195C1798.49 28.5195 1798.17 28.5957 1797.88 28.748C1797.59 28.9004 1797.35 29.1084 1797.15 29.3721C1796.96 29.6357 1796.81 29.9404 1796.7 30.2861C1796.6 30.6318 1796.54 31.001 1796.54 31.3936ZM1811.59 26.9902V36.5H1809.46V26.9902H1811.59ZM1809.32 24.4941C1809.32 24.1719 1809.43 23.9053 1809.64 23.6943C1809.86 23.4775 1810.16 23.3691 1810.54 23.3691C1810.91 23.3691 1811.21 23.4775 1811.42 23.6943C1811.64 23.9053 1811.75 24.1719 1811.75 24.4941C1811.75 24.8105 1811.64 25.0742 1811.42 25.2852C1811.21 25.4961 1810.91 25.6016 1810.54 25.6016C1810.16 25.6016 1809.86 25.4961 1809.64 25.2852C1809.43 25.0742 1809.32 24.8105 1809.32 24.4941ZM1816.01 29.0205V36.5H1813.89V26.9902H1815.89L1816.01 29.0205ZM1815.63 31.3936L1814.95 31.3848C1814.96 30.7109 1815.05 30.0928 1815.23 29.5303C1815.42 28.9678 1815.68 28.4844 1816 28.0801C1816.34 27.6758 1816.74 27.3652 1817.2 27.1484C1817.66 26.9258 1818.18 26.8145 1818.75 26.8145C1819.2 26.8145 1819.62 26.8789 1819.99 27.0078C1820.36 27.1309 1820.68 27.333 1820.94 27.6143C1821.21 27.8955 1821.42 28.2617 1821.56 28.7129C1821.7 29.1582 1821.77 29.7061 1821.77 30.3564V36.5H1819.64V30.3477C1819.64 29.8906 1819.58 29.5303 1819.44 29.2666C1819.31 28.9971 1819.12 28.8066 1818.87 28.6953C1818.62 28.5781 1818.32 28.5195 1817.95 28.5195C1817.58 28.5195 1817.26 28.5957 1816.97 28.748C1816.68 28.9004 1816.44 29.1084 1816.24 29.3721C1816.05 29.6357 1815.9 29.9404 1815.79 30.2861C1815.69 30.6318 1815.63 31.001 1815.63 31.3936Z" fill="white"/>
</svg>
